<mxfile host="app.diagrams.net" modified="2023-05-23T22:36:04.153Z" agent="Mozilla/5.0 (Windows NT 10.0; Win64; x64) AppleWebKit/537.36 (KHTML, like Gecko) Chrome/113.0.0.0 Safari/537.36" etag="YpiGeGt-ppEAAdl26J1t" version="21.3.2" type="github">
  <diagram name="Page-1" id="2IvNBgS8tbI2_jpip2tQ">
    <mxGraphModel dx="1482" dy="800" grid="1" gridSize="10" guides="1" tooltips="1" connect="1" arrows="1" fold="1" page="1" pageScale="1" pageWidth="827" pageHeight="1169" math="0" shadow="0">
      <root>
        <mxCell id="0" />
        <mxCell id="1" parent="0" />
        <mxCell id="oci5fQn5ei1nki40rplE-5" value="" style="edgeStyle=orthogonalEdgeStyle;rounded=0;orthogonalLoop=1;jettySize=auto;html=1;" edge="1" parent="1" source="oci5fQn5ei1nki40rplE-1" target="oci5fQn5ei1nki40rplE-4">
          <mxGeometry relative="1" as="geometry" />
        </mxCell>
        <mxCell id="oci5fQn5ei1nki40rplE-7" value="" style="edgeStyle=orthogonalEdgeStyle;rounded=0;orthogonalLoop=1;jettySize=auto;html=1;" edge="1" parent="1" source="oci5fQn5ei1nki40rplE-1" target="oci5fQn5ei1nki40rplE-6">
          <mxGeometry relative="1" as="geometry" />
        </mxCell>
        <mxCell id="oci5fQn5ei1nki40rplE-1" value="Oral Pigmentation" style="rounded=1;whiteSpace=wrap;html=1;" vertex="1" parent="1">
          <mxGeometry x="354" y="350" width="120" height="60" as="geometry" />
        </mxCell>
        <mxCell id="oci5fQn5ei1nki40rplE-4" value="Physiologic" style="rounded=1;whiteSpace=wrap;html=1;" vertex="1" parent="1">
          <mxGeometry x="160" y="350" width="120" height="60" as="geometry" />
        </mxCell>
        <mxCell id="oci5fQn5ei1nki40rplE-13" style="edgeStyle=orthogonalEdgeStyle;rounded=0;orthogonalLoop=1;jettySize=auto;html=1;entryX=0.5;entryY=1;entryDx=0;entryDy=0;" edge="1" parent="1" source="oci5fQn5ei1nki40rplE-6" target="oci5fQn5ei1nki40rplE-12">
          <mxGeometry relative="1" as="geometry" />
        </mxCell>
        <mxCell id="oci5fQn5ei1nki40rplE-14" style="edgeStyle=orthogonalEdgeStyle;rounded=0;orthogonalLoop=1;jettySize=auto;html=1;entryX=0.5;entryY=0;entryDx=0;entryDy=0;" edge="1" parent="1" source="oci5fQn5ei1nki40rplE-6" target="oci5fQn5ei1nki40rplE-10">
          <mxGeometry relative="1" as="geometry" />
        </mxCell>
        <mxCell id="oci5fQn5ei1nki40rplE-6" value="Pathologic" style="rounded=1;whiteSpace=wrap;html=1;" vertex="1" parent="1">
          <mxGeometry x="550" y="350" width="120" height="60" as="geometry" />
        </mxCell>
        <mxCell id="oci5fQn5ei1nki40rplE-10" value="Endogenous" style="rounded=1;whiteSpace=wrap;html=1;" vertex="1" parent="1">
          <mxGeometry x="550" y="490" width="120" height="60" as="geometry" />
        </mxCell>
        <mxCell id="oci5fQn5ei1nki40rplE-12" value="Exogenous" style="rounded=1;whiteSpace=wrap;html=1;" vertex="1" parent="1">
          <mxGeometry x="550" y="210" width="120" height="60" as="geometry" />
        </mxCell>
      </root>
    </mxGraphModel>
  </diagram>
</mxfile>
